<?xml version="1.0" standalone="no"?>
<svg xmlns="http://www.w3.org/2000/svg"
     width="832.000000pt" height="832.000000pt" viewBox="0 0 832.000000 832.000000"
     preserveAspectRatio="xMidYMid meet">
    <g transform="translate(0.000000,832.000000) scale(0.100000,-0.100000)"
       fill="#000000" stroke="none">
        <path d="M3798 7915 c-2 -2 -55 -6 -118 -9 -119 -6 -202 -13 -280 -22 -25 -3
-66 -7 -91 -8 -25 -2 -63 -6 -85 -10 -21 -3 -57 -8 -79 -11 -23 -3 -50 -7 -62
-9 -12 -3 -43 -8 -70 -12 -26 -3 -57 -8 -68 -11 -11 -2 -29 -6 -40 -7 -45 -8
-93 -18 -151 -31 -34 -8 -73 -16 -85 -19 -54 -11 -216 -58 -316 -92 -60 -19
-112 -36 -118 -37 -5 -1 -12 -4 -15 -7 -3 -3 -32 -16 -65 -29 -154 -62 -375
-179 -456 -243 -20 -15 -40 -28 -43 -28 -7 0 -88 -65 -153 -122 -116 -102
-246 -256 -310 -367 -15 -25 -30 -48 -33 -51 -30 -27 -149 -341 -164 -435 -4
-22 -8 -49 -10 -60 -14 -78 -17 -111 -21 -194 -2 -51 -6 -96 -9 -98 -2 -3 0
-18 4 -34 5 -16 5 -29 0 -29 -5 0 -5 -13 0 -30 5 -17 5 -30 0 -30 -5 0 -5 -13
0 -30 5 -17 5 -30 0 -30 -5 0 -5 -13 0 -30 5 -17 5 -30 0 -30 -5 0 -5 -13 0
-30 5 -17 5 -30 0 -30 -5 0 -5 -13 0 -30 5 -17 5 -30 0 -30 -5 0 -5 -13 0 -30
5 -17 5 -30 0 -30 -5 0 -5 -13 0 -30 5 -17 5 -30 0 -30 -5 0 -5 -12 -1 -27 7
-29 6 -76 -3 -100 -3 -7 -2 -13 3 -13 5 0 5 -15 2 -32 -4 -18 -4 -52 -1 -75 4
-24 3 -43 -1 -43 -4 0 -4 -13 1 -30 5 -16 6 -30 2 -30 -8 0 -6 -109 2 -117 3
-3 1 -13 -4 -22 -5 -10 -5 -23 0 -31 5 -8 5 -21 0 -30 -5 -9 -5 -22 0 -30 4
-7 4 -24 0 -36 -6 -14 -5 -26 0 -29 5 -3 5 -18 0 -35 -5 -17 -5 -30 0 -30 5 0
5 -13 0 -30 -5 -17 -5 -30 0 -30 5 0 5 -13 0 -30 -5 -16 -5 -30 0 -30 4 0 5
-15 1 -32 -4 -18 -4 -48 0 -65 3 -18 3 -33 -2 -33 -4 0 -4 -12 0 -27 4 -16 5
-39 1 -53 -4 -14 -3 -37 1 -52 4 -16 4 -28 -1 -28 -5 0 -5 -13 0 -30 5 -16 6
-30 2 -30 -4 0 -7 -16 -7 -35 0 -19 3 -35 7 -35 4 0 3 -13 -2 -30 -5 -17 -5
-30 0 -30 5 0 5 -13 0 -30 -5 -17 -5 -30 0 -30 5 0 5 -13 0 -30 -5 -16 -5 -32
0 -35 5 -3 5 -19 0 -35 -5 -16 -5 -32 0 -35 5 -3 5 -19 0 -35 -5 -17 -5 -30 0
-30 5 0 7 -7 3 -16 -3 -9 -13 -14 -24 -11 -11 3 -19 2 -19 -1 0 -9 -84 -7 -98
2 -6 3 -13 2 -17 -4 -4 -6 -11 -7 -17 -4 -9 6 -88 8 -113 4 -5 -1 -28 -1 -50
-1 -22 1 -46 2 -52 1 -19 0 -41 0 -55 1 -7 0 -29 0 -48 0 -38 -1 -60 -1 -87
-1 -142 1 -207 -22 -273 -97 -111 -127 -139 -313 -69 -459 58 -119 199 -227
314 -238 26 -3 50 -8 53 -10 2 -3 12 -1 21 4 10 5 23 5 31 0 9 -5 19 -5 26 1
8 7 14 7 18 0 4 -6 14 -7 23 -4 21 8 64 9 84 1 9 -3 22 -2 29 2 8 5 18 6 23 3
12 -7 97 -10 97 -2 0 7 55 3 69 -5 5 -4 12 -2 16 4 4 7 12 7 25 0 12 -6 21 -7
25 0 3 5 15 6 28 1 12 -5 34 -5 49 0 15 4 30 4 33 -1 3 -5 15 -6 29 0 12 4 29
4 36 0 8 -5 19 -6 25 -2 9 7 31 8 45 3 14 -5 100 -5 100 0 0 7 55 3 69 -5 5
-4 12 -2 16 4 4 7 12 7 25 0 12 -6 21 -7 25 0 3 5 15 6 28 1 12 -5 34 -5 49 0
15 4 30 4 33 -1 3 -5 15 -6 29 0 12 4 29 4 36 0 8 -5 19 -6 25 -2 9 7 31 8 45
3 14 -5 100 -5 100 0 0 7 55 3 69 -5 5 -4 12 -2 16 4 4 7 12 7 25 0 12 -6 21
-7 25 0 3 5 15 6 28 1 12 -5 34 -5 49 0 15 4 30 4 33 -1 3 -5 15 -6 29 0 12 4
29 4 36 0 8 -5 19 -6 25 -2 9 7 31 8 45 3 14 -5 100 -5 100 0 0 7 55 3 69 -5
5 -4 12 -2 16 4 4 7 12 7 25 0 12 -6 21 -7 25 0 3 5 15 6 28 1 12 -5 34 -5 49
0 15 4 30 4 33 -1 3 -5 15 -6 29 0 12 4 29 4 36 0 8 -5 19 -6 25 -2 9 7 31 8
45 3 14 -5 100 -5 100 0 0 7 55 3 69 -5 5 -4 12 -2 16 4 4 7 12 7 25 0 12 -6
21 -7 25 0 3 5 15 6 28 1 12 -5 34 -5 49 0 15 4 30 4 33 -1 3 -5 15 -6 29 0
12 4 29 4 36 0 8 -5 19 -6 25 -2 9 7 31 8 45 3 14 -5 100 -5 100 0 0 7 55 3
69 -5 5 -4 12 -2 16 4 4 7 12 7 25 0 12 -6 21 -7 25 0 3 5 15 6 28 1 12 -5 34
-5 49 0 15 4 30 4 33 -1 3 -5 15 -6 29 0 12 4 29 4 36 0 8 -5 19 -6 25 -2 9 7
31 8 45 3 14 -5 100 -5 100 0 0 7 55 3 69 -5 5 -4 12 -2 16 4 4 7 12 7 25 0
12 -6 21 -7 25 0 3 5 15 6 28 1 12 -5 34 -5 49 0 15 4 30 4 33 -1 3 -5 15 -6
29 0 12 4 29 4 36 0 8 -5 19 -6 25 -2 9 7 31 8 45 3 14 -5 100 -5 100 0 0 7
55 3 69 -5 5 -4 12 -2 16 4 4 7 12 7 25 0 12 -6 21 -7 25 0 3 5 15 6 28 1 12
-5 34 -5 49 0 15 4 30 4 33 -1 3 -5 15 -6 29 0 12 4 29 4 36 0 8 -5 19 -6 25
-2 9 7 31 8 45 3 14 -5 100 -5 100 0 0 7 55 3 69 -5 5 -4 12 -2 16 4 4 7 12 7
25 0 12 -6 21 -7 25 0 3 5 15 6 28 1 12 -5 34 -5 49 0 15 4 30 4 33 -1 3 -5
15 -6 29 0 12 4 29 4 36 0 8 -5 19 -6 25 -2 9 7 31 8 45 3 13 -5 100 -5 100
-1 0 7 80 4 87 -3 3 -3 15 -2 27 3 13 4 29 4 36 0 8 -5 19 -6 25 -2 9 7 31 8
45 3 14 -5 100 -5 100 0 0 7 55 3 69 -5 5 -4 12 -2 16 4 4 7 12 7 25 0 12 -6
21 -7 25 0 3 5 15 6 28 1 12 -5 34 -5 49 0 15 4 30 4 33 -1 3 -5 15 -6 29 0
12 4 29 4 36 0 8 -5 19 -6 25 -2 9 7 31 8 45 3 14 -5 100 -5 100 0 0 7 55 3
69 -5 5 -4 12 -2 16 4 4 7 12 7 25 0 12 -6 21 -7 25 0 3 5 15 6 28 1 12 -5 34
-5 49 0 15 4 30 4 33 -1 3 -5 15 -6 29 0 12 4 29 4 36 0 8 -5 19 -6 25 -2 9 7
31 8 45 3 14 -5 100 -5 100 0 0 7 55 3 69 -5 5 -4 12 -2 16 4 4 7 12 7 25 0
12 -6 21 -7 25 0 3 5 15 6 28 1 12 -5 34 -5 49 0 15 4 30 4 33 -1 3 -5 15 -6
29 0 12 4 29 4 36 0 8 -5 19 -6 25 -2 9 7 31 8 45 3 14 -5 100 -5 100 0 0 7
55 3 69 -5 5 -4 12 -2 16 4 4 7 12 7 25 0 12 -6 21 -7 25 0 3 5 15 6 28 1 12
-5 34 -5 49 0 15 4 30 4 33 -1 3 -5 15 -6 29 0 12 4 29 4 36 0 8 -5 19 -6 25
-2 9 7 31 8 45 3 14 -5 100 -5 100 0 0 7 55 3 69 -5 5 -4 12 -2 16 4 4 7 12 7
25 0 12 -6 21 -7 25 0 3 5 15 6 28 1 12 -5 34 -5 49 0 15 4 30 4 33 -1 3 -5
15 -6 29 0 12 4 29 4 36 0 8 -5 19 -6 25 -2 9 7 31 8 45 3 14 -5 100 -5 100 0
0 7 55 3 69 -5 5 -4 12 -2 16 4 4 7 12 7 25 0 12 -6 21 -7 25 0 3 6 15 6 29 0
13 -5 26 -7 28 -4 2 2 24 6 49 9 61 8 117 38 165 91 35 38 82 115 91 149 24
90 26 245 3 300 -37 89 -51 114 -89 156 -53 60 -118 91 -200 95 -35 2 -66 6
-69 8 -2 3 -12 1 -21 -4 -10 -5 -23 -5 -30 -1 -7 5 -27 5 -45 1 -17 -4 -40 -4
-51 0 -11 4 -27 4 -36 -1 -8 -4 -21 -4 -28 0 -7 5 -27 5 -45 1 -18 -4 -42 -3
-54 1 -12 5 -24 4 -27 -1 -3 -5 -12 -7 -20 -4 -19 8 -115 11 -115 4 0 -4 -51
-3 -97 2 -11 1 -25 48 -14 48 8 0 6 58 -1 66 -4 3 -2 19 2 35 5 16 5 29 0 29
-5 0 -5 12 -1 28 7 28 6 75 -3 99 -3 7 -1 13 4 13 5 0 5 13 0 30 -5 17 -5 30
0 30 5 0 5 13 0 30 -5 17 -5 30 0 30 5 0 5 13 0 30 -5 17 -5 30 0 30 5 0 5 13
0 30 -5 17 -5 30 0 30 5 0 5 13 0 30 -5 17 -5 30 0 30 5 0 5 13 0 30 -5 17 -5
30 0 30 5 0 5 13 0 30 -5 17 -5 30 0 30 5 0 5 13 0 30 -5 17 -5 30 0 30 5 0 5
12 1 28 -7 28 -6 75 3 99 3 7 2 13 -3 13 -5 0 -5 15 -2 33 4 17 4 51 1 75 -4
23 -3 42 1 42 4 0 4 14 -1 30 -5 17 -6 30 -2 30 8 0 6 95 -2 116 -3 8 -1 14 4
14 5 0 5 13 0 30 -5 17 -6 30 -2 30 4 0 7 16 7 35 0 19 -3 35 -7 35 -4 0 -3
14 2 30 5 17 5 30 0 30 -5 0 -5 13 0 30 5 17 5 30 0 30 -5 0 -5 13 0 30 5 17
5 32 0 35 -5 3 -6 15 0 29 4 12 4 29 0 36 -5 8 -5 21 0 30 5 9 5 22 0 30 -5 8
-5 21 0 30 5 9 5 22 1 29 -5 7 -5 29 -1 49 3 21 3 49 -1 63 -3 15 -3 33 1 40
5 7 5 20 0 29 -5 9 -5 22 0 29 4 8 4 27 0 42 -5 17 -5 31 1 35 5 3 7 9 4 14
-3 5 -8 51 -10 102 -3 51 -7 104 -10 118 -3 14 -8 41 -10 61 -2 19 -14 71 -25
115 -12 43 -23 84 -24 89 -2 6 -7 19 -11 30 -5 11 -16 41 -26 66 -94 245 -281
491 -509 670 -41 33 -81 64 -88 70 -61 50 -416 249 -445 249 -4 0 -26 9 -50
19 -91 42 -248 99 -332 121 -16 5 -73 20 -125 35 -52 15 -104 28 -115 29 -11
2 -29 6 -40 9 -11 3 -31 8 -45 11 -14 3 -50 10 -80 16 -30 6 -68 13 -85 16
-16 3 -43 7 -60 11 -16 3 -46 7 -65 9 -19 1 -35 3 -35 4 0 3 -39 9 -87 15 -27
3 -72 8 -100 11 -71 9 -98 11 -198 20 -47 4 -105 9 -130 11 -58 5 -857 12
-862 8z"/>
        <path d="M4010 2080 c-8 -5 -17 -40 -25 -102 -2 -15 -11 -53 -20 -83 -8 -30
-15 -57 -15 -60 1 -16 -63 -126 -95 -163 -37 -43 -125 -110 -125 -95 0 4 -4 3
-8 -3 -16 -24 -179 -55 -287 -55 -55 0 -244 15 -315 25 -90 13 -112 16 -144
21 -19 3 -52 8 -73 10 -21 2 -60 7 -88 10 -27 3 -88 8 -135 10 -47 2 -87 5
-90 5 -18 5 -228 -5 -305 -14 -116 -14 -142 -19 -235 -42 -72 -18 -202 -63
-210 -73 -3 -3 -10 -7 -17 -8 -13 -3 -134 -75 -160 -96 -27 -21 -137 -134
-160 -163 -13 -16 -23 -35 -23 -41 0 -7 -3 -13 -8 -13 -11 0 -79 -136 -110
-225 -14 -38 -42 -149 -48 -189 -3 -17 -7 -44 -9 -59 -12 -80 -15 -109 -20
-189 l-4 -88 159 0 c121 0 160 3 161 13 1 30 17 139 24 174 9 39 46 134 61
157 50 74 166 153 251 172 6 1 33 7 60 13 89 18 175 25 333 25 128 0 285 -8
285 -14 0 -1 9 -3 20 -4 11 -2 40 -6 65 -10 25 -4 61 -9 80 -12 20 -2 45 -6
55 -8 52 -9 146 -19 203 -21 34 -1 65 -5 68 -8 3 -3 17 -2 30 3 14 6 26 6 29
-1 4 -5 11 -7 16 -3 5 3 38 7 72 10 125 8 154 12 247 34 164 39 293 112 405
231 67 71 107 132 172 264 19 39 41 82 49 97 8 15 15 29 15 30 0 2 2 13 5 26
6 22 24 31 24 12 0 -9 27 -69 89 -200 47 -101 163 -253 229 -301 18 -13 39
-29 45 -34 30 -27 129 -76 201 -100 103 -35 217 -54 344 -60 57 -3 107 -7 113
-10 5 -4 9 -2 9 4 0 6 11 6 29 1 16 -4 32 -6 34 -3 3 2 29 6 59 9 29 2 69 6
88 10 19 3 53 8 75 10 22 2 51 6 65 8 90 16 108 19 220 34 69 9 343 9 431 -1
163 -17 293 -60 346 -112 8 -8 20 -18 26 -22 7 -5 26 -26 43 -48 49 -63 90
-192 99 -315 2 -14 3 -31 4 -37 1 -10 40 -13 161 -13 l159 0 -4 78 c-2 42 -7
97 -10 122 -8 68 -17 133 -22 155 -2 11 -6 29 -8 40 -10 46 -54 185 -66 207
-7 13 -14 28 -15 34 -3 16 -94 165 -118 193 -127 145 -298 256 -456 296 -8 2
-39 11 -67 19 -29 8 -53 12 -53 10 0 -3 -8 -1 -17 4 -10 5 -45 13 -78 16 -33
4 -73 9 -90 11 -16 3 -75 7 -130 10 -55 3 -104 6 -110 7 -28 1 -273 -13 -295
-18 -14 -2 -45 -7 -70 -9 -43 -4 -73 -8 -150 -19 -19 -3 -53 -8 -75 -10 -22
-3 -65 -8 -95 -12 -30 -4 -89 -8 -130 -10 -41 -1 -77 -3 -80 -4 -8 -3 -50 -2
-125 5 -74 6 -205 42 -205 56 0 5 -6 9 -14 9 -24 0 -112 94 -142 151 -15 30
-28 56 -29 59 0 3 -3 10 -7 15 -7 12 -38 130 -43 165 -2 14 -4 25 -5 25 -1 0
-3 14 -5 30 -4 46 -4 46 -22 44 -10 -1 -22 0 -28 1 -11 2 -51 2 -125 0 -25 0
-65 1 -88 2 -24 2 -48 1 -52 -2z"/>
    </g>
</svg>
